<?xml version="1.0" standalone="no"?>
<!DOCTYPE svg PUBLIC "-//W3C//DTD SVG 20010904//EN"
 "http://www.w3.org/TR/2001/REC-SVG-20010904/DTD/svg10.dtd">
<svg version="1.0" xmlns="http://www.w3.org/2000/svg"
 width="690.000000pt" height="689.000000pt" viewBox="0 0 690.000000 689.000000"
 preserveAspectRatio="xMidYMid meet">

<g transform="translate(0.000000,689.000000) scale(0.100000,-0.100000)"
fill="#000000" stroke="none">
<path d="M3397 4969 c-32 -5 -75 -13 -95 -19 -20 -5 -51 -10 -69 -10 -43 0
-69 -10 -52 -21 8 -5 -2 -10 -27 -14 -21 -3 -57 -10 -79 -15 -22 -5 -53 -12
-68 -15 -15 -3 -25 -10 -22 -15 3 -6 1 -10 -5 -10 -6 0 -30 -9 -52 -20 -23
-11 -55 -20 -72 -20 -28 0 -29 -1 -10 -15 15 -11 16 -15 4 -15 -24 -1 -91 -36
-83 -43 3 -4 -4 -7 -16 -7 -12 0 -19 -4 -16 -10 3 -5 -2 -10 -12 -10 -21 -1
-55 -24 -53 -37 0 -4 -16 -11 -37 -14 -21 -3 -30 -7 -21 -8 32 -2 -12 -41 -46
-41 -27 0 -28 -1 -11 -13 17 -13 17 -14 -5 -20 -12 -3 -19 -10 -15 -16 8 -14
-40 -32 -62 -24 -16 6 -16 5 -4 -10 9 -12 10 -17 2 -17 -7 0 -11 -8 -10 -17 3
-25 -11 -53 -26 -53 -6 0 -20 -9 -30 -20 -10 -11 -30 -20 -44 -20 l-26 -1 25
-14 c19 -11 21 -14 8 -15 -10 0 -18 -4 -18 -10 0 -5 -7 -10 -16 -10 -10 0 -14
-6 -10 -15 3 -8 1 -15 -5 -15 -6 0 -9 -7 -5 -15 3 -9 0 -15 -10 -15 -10 0 -14
-6 -11 -14 7 -18 -12 -36 -37 -36 -20 0 -20 0 0 -15 18 -14 18 -14 -6 -15 -20
0 -22 -2 -10 -10 13 -8 12 -10 -4 -10 -12 0 -16 -5 -12 -15 3 -8 0 -15 -7 -15
-7 0 -3 -7 7 -15 17 -13 18 -15 3 -15 -9 0 -17 -7 -17 -15 0 -8 -7 -15 -15
-15 -18 0 -20 -20 -2 -20 8 -1 6 -5 -4 -13 -9 -7 -17 -16 -19 -22 -10 -37 -22
-55 -37 -55 -17 -1 -16 -2 1 -15 19 -15 19 -15 1 -15 -14 0 -16 -3 -8 -11 15
-15 4 -49 -15 -49 -8 0 -12 -3 -8 -7 3 -4 -4 -13 -16 -20 -13 -7 -18 -12 -11
-13 17 0 9 -51 -11 -65 -9 -7 -14 -19 -10 -29 3 -9 1 -16 -5 -16 -6 0 -11 -9
-11 -20 0 -11 -7 -23 -15 -26 -9 -4 -13 -13 -10 -24 4 -13 -3 -21 -25 -30 -16
-7 -30 -18 -30 -25 0 -7 -9 -15 -20 -18 -13 -3 -18 -10 -14 -21 5 -13 -1 -16
-27 -17 -19 0 -28 -3 -21 -6 19 -7 -16 -32 -45 -33 -13 0 -23 -4 -23 -10 0 -5
-7 -10 -15 -10 -8 0 -15 -7 -15 -15 0 -9 -9 -15 -24 -15 -13 0 -39 -6 -57 -14
-19 -7 -43 -17 -54 -21 -11 -4 -30 -7 -42 -6 -13 1 -23 -2 -23 -6 0 -16 -93
-33 -180 -34 -47 0 -161 -5 -255 -10 -93 -6 -240 -12 -325 -15 -233 -8 -475
-26 -486 -37 -15 -14 38 -30 128 -37 204 -17 292 -20 848 -27 310 -3 555 -9
545 -13 -11 -4 -38 -6 -60 -5 -22 1 -220 3 -440 4 -378 3 -747 13 -915 26 -58
4 -71 3 -57 -6 30 -18 319 -29 987 -38 560 -6 639 -9 665 -24 17 -9 24 -16 16
-17 -11 0 -8 -6 7 -23 12 -13 20 -26 16 -29 -3 -4 -7 -18 -8 -32 -2 -18 2 -27
15 -31 15 -5 18 -13 14 -36 -4 -19 -1 -31 8 -35 20 -7 19 -44 -1 -44 -11 -1
-6 -7 13 -17 27 -15 28 -17 10 -24 -19 -7 -19 -8 1 -8 29 -1 35 -10 23 -32 -7
-15 -6 -21 5 -25 8 -3 12 -12 9 -20 -3 -8 1 -14 11 -14 9 0 16 -7 16 -15 0 -8
4 -15 9 -15 5 0 7 -9 4 -20 -3 -13 1 -22 11 -26 13 -5 14 -9 5 -20 -9 -11 -8
-15 5 -20 12 -4 13 -11 6 -24 -8 -15 -5 -21 19 -31 21 -10 31 -23 36 -45 3
-18 13 -34 22 -36 8 -2 21 -19 27 -38 8 -24 18 -36 34 -38 12 -2 22 -8 22 -13
0 -6 -5 -7 -11 -3 -7 4 -10 1 -7 -7 3 -8 14 -15 26 -17 12 -2 22 -10 22 -18 0
-8 4 -14 10 -14 5 0 7 -7 4 -15 -4 -9 3 -16 21 -21 15 -4 22 -9 17 -13 -7 -4
-5 -13 3 -25 8 -10 18 -15 23 -12 5 3 15 -1 22 -9 9 -11 9 -15 1 -15 -7 0 -9
-4 -6 -10 3 -6 17 -10 31 -10 16 0 28 -8 36 -25 6 -14 19 -25 28 -25 10 0 24
-8 31 -17 12 -15 12 -16 -6 -10 -20 7 -20 7 -1 -8 11 -8 29 -15 40 -15 12 0
28 -5 36 -10 13 -8 12 -10 -4 -10 -16 0 -15 -3 7 -20 14 -11 37 -20 50 -20 14
0 29 -4 32 -10 3 -6 -1 -10 -10 -10 -31 0 -4 -20 28 -21 18 0 41 -4 52 -9 18
-8 18 -9 -5 -10 -25 -1 -25 -1 -5 -16 11 -8 31 -13 45 -11 14 3 52 -5 85 -18
73 -29 60 -32 -20 -6 -93 31 -41 -3 60 -39 215 -76 704 -141 777 -104 15 8 47
14 73 14 52 0 61 17 13 23 -33 4 -33 4 4 5 20 1 49 -3 63 -10 19 -9 28 -9 37
0 9 9 8 12 -6 12 -9 0 -14 5 -11 10 4 6 22 8 43 5 29 -5 34 -4 22 5 -12 9 -9
11 14 7 39 -6 63 2 44 15 -8 5 1 6 23 2 23 -3 39 -2 44 5 3 6 11 9 16 6 5 -4
17 -1 26 4 10 6 12 11 6 11 -7 0 -13 5 -13 11 0 8 12 9 37 4 33 -6 35 -5 24 9
-12 14 -10 16 13 16 17 0 26 5 26 15 0 11 7 14 24 9 29 -7 66 3 66 17 0 6 -9
7 -21 4 -15 -5 -19 -4 -15 4 4 6 17 11 30 11 41 0 103 39 64 40 -7 0 -5 5 5
11 9 5 21 8 26 5 4 -3 16 3 26 14 10 11 22 17 26 14 5 -3 14 -2 20 2 8 4 7 9
-2 15 -9 5 -5 11 17 21 34 15 59 37 59 52 0 6 9 11 20 11 11 0 20 7 20 15 0
21 16 30 45 24 14 -3 21 -2 15 3 -14 11 -17 33 -4 33 5 0 7 5 3 11 -4 8 1 9
16 4 19 -6 21 -4 15 14 -5 16 -1 22 19 27 23 6 30 15 27 36 -2 17 50 57 67 51
15 -6 15 -5 3 10 -12 15 -11 17 8 17 11 0 20 3 20 8 -5 29 4 55 20 59 13 3 17
11 14 24 -4 14 0 22 14 25 15 4 19 12 15 30 -4 20 0 26 18 31 15 4 20 11 17
24 -3 12 0 19 10 19 8 0 12 4 8 9 -3 5 -1 12 4 16 5 3 8 14 6 25 -2 12 2 20
10 20 9 0 12 6 9 15 -5 11 -2 13 10 9 17 -6 24 20 8 30 -7 4 -8 28 -3 74 0 6
10 12 20 12 12 0 20 7 20 18 1 41 9 66 24 77 9 7 14 15 10 19 -17 16 -12 45 8
51 12 4 17 10 12 14 -13 8 -13 44 0 52 5 4 5 14 -2 27 -10 19 -8 23 17 36 36
18 87 23 312 31 266 9 435 15 654 25 110 5 203 7 208 4 10 -6 142 12 208 27
23 6 3 7 -55 3 -49 -3 -92 -9 -95 -14 -3 -5 -27 -4 -54 1 -26 5 -58 7 -70 4
-11 -2 -100 -7 -196 -10 -96 -4 -209 -9 -250 -11 -41 -2 -183 -5 -315 -8 -176
-3 -208 -2 -120 4 66 4 210 10 320 14 110 4 298 11 418 17 119 5 221 8 226 5
4 -3 46 2 91 10 46 9 99 14 117 11 35 -6 45 10 19 32 -19 16 -246 29 -621 36
-353 7 -424 16 -534 68 -48 22 -60 32 -48 36 13 5 6 10 -25 18 -49 13 -87 42
-81 61 3 6 -3 12 -11 12 -21 0 -119 97 -111 109 3 5 1 12 -5 16 -6 4 -8 10 -5
15 3 5 -3 13 -12 19 -10 6 -14 11 -9 11 5 0 3 7 -4 15 -9 11 -9 15 -1 15 7 0
9 5 6 10 -3 6 0 10 7 11 7 0 -3 7 -22 14 -19 7 -30 14 -23 14 7 1 10 8 7 16
-4 9 -1 15 7 15 7 0 3 7 -9 16 -12 8 -20 19 -17 24 3 5 -3 13 -12 19 -14 8
-15 11 -3 11 10 0 7 7 -10 20 -16 12 -20 20 -11 20 11 0 9 4 -5 15 -13 10 -15
14 -5 15 11 0 11 4 -2 18 -10 10 -17 23 -17 28 0 5 -9 20 -20 34 -26 33 -25
38 8 43 25 4 25 4 -6 6 -27 1 -37 9 -62 48 -17 26 -30 52 -30 59 0 6 -16 28
-37 47 -20 20 -37 44 -38 54 -1 22 -175 199 -204 208 -12 3 -21 13 -21 21 0 8
-4 14 -8 14 -8 0 -21 10 -89 68 -14 12 -31 22 -36 22 -6 0 -20 8 -31 18 -12
10 -36 25 -55 32 -19 8 -45 24 -59 37 -14 13 -43 28 -66 34 -23 6 -50 16 -61
24 -33 20 -236 60 -483 95 -150 21 -219 23 -315 9z m268 -717 c57 2 102 1 99
-1 -13 -13 123 -63 201 -74 17 -3 29 -9 28 -15 -1 -6 11 -14 28 -17 19 -4 33
-15 36 -26 4 -13 11 -18 23 -14 9 3 24 -3 35 -15 10 -11 15 -20 11 -20 -4 0
-2 -9 4 -20 6 -11 19 -20 29 -20 10 0 21 -9 24 -19 3 -11 18 -28 34 -38 16
-10 28 -27 28 -38 0 -11 9 -24 21 -30 11 -5 19 -16 16 -23 -2 -6 3 -15 12 -18
9 -3 16 -12 16 -20 0 -8 7 -14 16 -14 12 0 15 -6 11 -21 -4 -15 -2 -19 8 -15
15 5 30 -27 20 -44 -3 -6 1 -13 10 -17 13 -4 15 -13 11 -35 -4 -20 -1 -35 9
-45 11 -11 13 -19 5 -27 -5 -7 -7 -16 -3 -20 12 -11 13 -75 2 -82 -6 -4 -6
-10 1 -19 8 -9 8 -15 0 -20 -6 -3 -8 -10 -5 -15 16 -26 -43 -29 -635 -35 -338
-4 -637 -8 -665 -9 -27 -1 -96 1 -152 5 -83 6 -106 11 -124 28 -16 15 -18 21
-8 21 10 1 9 5 -5 15 -19 15 -19 15 4 15 22 0 22 1 6 19 -16 17 -16 19 1 25
14 6 15 9 4 15 -10 6 -10 13 -2 28 5 11 7 23 4 27 -3 3 -1 6 7 6 9 0 10 3 1
14 -14 16 -4 46 14 46 17 0 30 20 19 29 -16 11 -12 40 7 46 11 4 17 10 14 15
-3 4 2 13 10 20 8 7 15 22 15 34 0 12 9 25 23 31 15 7 21 18 20 33 -2 17 2 22
20 22 14 0 24 6 24 15 0 8 -4 15 -9 15 -5 0 -6 5 -3 10 3 6 18 10 32 10 18 0
24 4 19 15 -4 10 1 15 14 15 17 0 18 4 10 25 -5 14 -6 25 -1 25 5 0 28 18 51
40 29 28 55 42 83 47 26 4 41 12 44 23 3 12 11 16 25 12 14 -3 19 -1 14 6 -7
12 -1 14 54 16 17 1 25 6 24 19 -2 20 7 22 23 6 9 -9 18 -8 37 5 16 10 35 14
50 10 28 -7 70 12 60 27 -4 7 2 7 15 -1 14 -7 60 -10 126 -8z m450 -972 c-8
-13 -183 -11 -191 2 -3 4 40 8 96 8 67 0 99 -3 95 -10z m174 5 c-10 -9 -101
-13 -127 -5 -20 6 -5 9 52 9 44 1 77 -1 75 -4z m-1009 -15 c0 -9 -316 -8 -326
2 -3 4 69 7 160 7 91 0 166 -4 166 -9z m517 4 c-9 -9 -448 -12 -477 -3 -14 4
89 8 229 8 140 1 252 -2 248 -5z m91 -1 c-16 -2 -40 -2 -55 0 -16 2 -3 4 27 4
30 0 43 -2 28 -4z m-1971 -9 c-3 -3 -12 -4 -19 -1 -8 3 -5 6 6 6 11 1 17 -2
13 -5z m2434 -26 c31 -15 39 -23 27 -26 -21 -4 -24 -22 -5 -23 6 0 3 -4 -8 -9
-11 -5 -14 -9 -6 -9 11 -1 10 -6 -3 -26 -9 -14 -14 -25 -11 -25 3 0 0 -10 -7
-22 -6 -13 -13 -32 -15 -43 -2 -10 -14 -30 -26 -43 -12 -13 -21 -32 -19 -42 2
-11 -5 -20 -20 -23 -17 -5 -20 -9 -11 -18 9 -9 1 -20 -31 -48 -23 -20 -41 -41
-39 -47 4 -12 -38 -34 -70 -35 -20 -1 -20 -2 3 -8 22 -7 18 -9 -25 -16 -36 -6
-45 -10 -30 -15 17 -6 16 -8 -8 -14 -15 -3 -25 -11 -22 -16 3 -6 -5 -10 -20
-10 -14 0 -28 -7 -31 -15 -4 -8 -12 -15 -19 -15 -7 0 -15 -7 -19 -15 -3 -10
-19 -15 -46 -15 -22 0 -40 -4 -40 -8 0 -20 -103 -40 -244 -48 -113 -7 -128 -6
-186 12 -80 24 -290 127 -286 140 3 6 -6 16 -20 23 -13 6 -24 15 -24 21 0 5
-8 10 -17 10 -15 0 -16 2 -3 10 13 9 13 10 0 10 -21 1 -86 61 -94 88 -4 12
-12 22 -17 22 -5 0 -17 18 -26 40 -10 22 -27 43 -38 47 -19 6 -18 7 5 13 l25
7 -27 13 c-16 7 -24 18 -21 26 3 8 0 14 -7 14 -7 0 -10 6 -7 14 3 7 -1 23 -10
35 -12 18 -12 25 -2 37 10 12 10 17 1 23 -7 4 9 14 40 23 45 13 130 16 537 17
267 1 486 3 488 4 1 2 90 4 196 5 181 2 196 0 238 -20z m-1213 -1252 c31 -8
68 -17 82 -19 l25 -4 -25 -2 c-31 -1 -136 25 -159 40 -14 9 -14 10 2 5 10 -3
43 -12 75 -20z m1019 8 c-3 -3 -12 -4 -19 -1 -8 3 -5 6 6 6 11 1 17 -2 13 -5z
m-838 -45 c28 -6 81 -15 118 -19 l68 -9 -80 5 c-44 2 -102 11 -130 18 -61 17
-45 20 24 5z m234 -36 c-7 -2 -21 -2 -30 0 -10 3 -4 5 12 5 17 0 24 -2 18 -5z
m117 -12 l45 -8 -45 -1 c-25 0 -58 4 -75 8 l-30 8 30 0 c17 0 50 -3 75 -7z
m123 2 c-13 -2 -33 -2 -45 0 -13 2 -3 4 22 4 25 0 35 -2 23 -4z"/>
</g>
</svg>
